<svg xmlns="http://www.w3.org/2000/svg" viewBox="0 0 640 420" role="img" aria-labelledby="title desc">
  <title id="title">Erou digital pentru autentificare</title>
  <desc id="desc">Un personaj robot care revine in laboratorul digital.</desc>
  <defs>
    <linearGradient id="bg" x1="0" y1="0" x2="1" y2="1">
      <stop offset="0" stop-color="#1d4ed8"/>
      <stop offset="1" stop-color="#0f172a"/>
    </linearGradient>
    <linearGradient id="card" x1="0" y1="0" x2="1" y2="1">
      <stop offset="0" stop-color="#93c5fd" stop-opacity="0.28"/>
      <stop offset="1" stop-color="#22d3ee" stop-opacity="0.2"/>
    </linearGradient>
  </defs>
  <rect width="640" height="420" rx="28" fill="url(#bg)"/>
  <circle cx="72" cy="64" r="4" fill="#93c5fd" opacity=".8"/>
  <circle cx="118" cy="94" r="3" fill="#f0abfc" opacity=".7"/>
  <circle cx="560" cy="72" r="5" fill="#67e8f9" opacity=".7"/>
  <rect x="62" y="248" width="516" height="128" rx="20" fill="url(#card)" stroke="#93c5fd" stroke-opacity=".35"/>
  <rect x="96" y="278" width="180" height="16" rx="8" fill="#bfdbfe" opacity=".75"/>
  <rect x="96" y="306" width="136" height="12" rx="6" fill="#bfdbfe" opacity=".5"/>
  <rect x="96" y="330" width="84" height="24" rx="12" fill="#22d3ee" opacity=".8"/>
  <g transform="translate(332 98)">
    <rect x="0" y="0" width="188" height="176" rx="34" fill="#e2e8f0"/>
    <rect x="16" y="16" width="156" height="94" rx="18" fill="#0f172a"/>
    <circle cx="62" cy="62" r="16" fill="#38bdf8"/>
    <circle cx="126" cy="62" r="16" fill="#38bdf8"/>
    <rect x="54" y="124" width="80" height="16" rx="8" fill="#475569"/>
    <rect x="24" y="156" width="40" height="14" rx="7" fill="#94a3b8"/>
    <rect x="124" y="156" width="40" height="14" rx="7" fill="#94a3b8"/>
  </g>
  <g transform="translate(236 124)">
    <rect x="0" y="18" width="96" height="132" rx="20" fill="#f8fafc"/>
    <rect x="8" y="26" width="80" height="20" rx="10" fill="#cbd5e1"/>
    <circle cx="48" cy="76" r="14" fill="#1d4ed8"/>
    <path d="M44 76l4 4 8-8" fill="none" stroke="#e2e8f0" stroke-width="4" stroke-linecap="round" stroke-linejoin="round"/>
    <rect x="20" y="106" width="56" height="10" rx="5" fill="#94a3b8"/>
  </g>
</svg>
